<svg xmlns="http://www.w3.org/2000/svg" xmlns:xlink="http://www.w3.org/1999/xlink" width="400" height="88" viewBox="0 0 400 88">
  <defs>
    <polygon id="bobbibrown-a" points=".071 .373 14.14 .373 14.14 45.152 .071 45.152"/>
  </defs>
  <g fill="none" fill-rule="evenodd" transform="translate(1 23)">
    <mask id="bobbibrown-b" fill="#fff">
      <use xlink:href="#bobbibrown-a"/>
    </mask>
    <path fill="#373535" d="M4.09164103,41.6830769 L6.56974359,41.6830769 C8.8874359,41.6830769 10.0445128,40.6687179 10.0445128,38.642359 L10.0445128,26.3591795 C10.0445128,24.5439487 8.97,23.6310256 6.82333333,23.6310256 L4.09164103,23.6310256 L4.09164103,41.6830769 Z M4.09164103,20.1574359 L6.82333333,20.1574359 C8.85087179,20.1574359 9.85933333,19.0841026 9.85933333,16.9315385 L9.85933333,6.88820513 C9.85933333,4.86066667 8.7034359,3.84748718 6.38574359,3.84748718 L4.09164103,3.84748718 L4.09164103,20.1574359 Z M0,45.1519487 L0,0.372717949 L7.63010256,0.372717949 C9.81805128,0.372717949 11.3714359,0.662871795 12.2784615,1.24435897 C13.3930769,2.02753846 13.9509744,3.45589744 13.9509744,5.52 L13.9509744,16.8725641 C13.9509744,18.5674872 13.6148205,19.78 12.9330769,20.5030256 C12.2513333,21.2213333 11.0989744,21.6270769 9.49133333,21.7049231 L9.49133333,21.8346667 C12.5874872,21.9585128 14.1396923,23.3455897 14.1396923,25.9852821 L14.1396923,40.0058462 C14.1396923,42.0746667 13.5593846,43.4794359 12.4034872,44.2260513 C11.4905641,44.8441026 9.90179487,45.1519487 7.63010256,45.1519487 L0,45.1519487 Z" mask="url(#bobbibrown-b)"/>
    <path fill="#373535" d="M43.9123077 7.69025641L43.9123077 37.8355897C43.9123077 40.6463077 44.944359 42.0510769 47.0131795 42.0510769 49.0772821 42.0510769 50.1140513 40.6463077 50.1140513 37.8355897L50.1140513 7.69025641C50.1140513 4.87953846 49.0772821 3.47358974 47.0131795 3.47358974 44.944359 3.47358974 43.9123077 4.87953846 43.9123077 7.69025641M39.8171282 37.9606154L39.8171282 7.56523077C39.8171282 2.52528205 42.2173846 0 47.0131795 0 51.8101538 0 54.2104103 2.52528205 54.2104103 7.56523077L54.2104103 37.9606154C54.2104103 43.0052821 51.8101538 45.5258462 47.0131795 45.5258462 42.2173846 45.5258462 39.8171282 43.0052821 39.8171282 37.9606154M83.9181538 41.6830769L86.4021538 41.6830769C88.7151282 41.6830769 89.8757436 40.6687179 89.8757436 38.642359L89.8757436 26.3591795C89.8757436 24.5439487 88.7976923 23.6310256 86.6510256 23.6310256L83.9181538 23.6310256 83.9181538 41.6830769zM83.9181538 20.1574359L86.6510256 20.1574359C88.6738462 20.1574359 89.6870256 19.0841026 89.6870256 16.9315385L89.6870256 6.88820513C89.6870256 4.86066667 88.5311282 3.84748718 86.2134359 3.84748718L83.9181538 3.84748718 83.9181538 20.1574359zM79.8276923 45.1519487L79.8276923.372717949 87.4530769.372717949C89.6457436.372717949 91.1979487.662871795 92.1061538 1.24435897 93.2207692 2.02753846 93.7786667 3.45589744 93.7786667 5.52L93.7786667 16.8725641C93.7786667 18.5674872 93.4425128 19.78 92.7607692 20.5030256 92.0731282 21.2213333 90.9266667 21.6270769 89.3190256 21.7049231L89.3190256 21.8346667C92.4151795 21.9585128 93.9673846 23.3455897 93.9673846 25.9852821L93.9673846 40.0058462C93.9673846 42.0746667 93.3870769 43.4794359 92.23 44.2260513 91.3229744 44.8441026 89.7283077 45.1519487 87.4530769 45.1519487L79.8276923 45.1519487zM123.800154 41.6830769L126.282974 41.6830769C128.595949 41.6830769 129.757744 40.6687179 129.757744 38.642359L129.757744 26.3591795C129.757744 24.5439487 128.679692 23.6310256 126.527128 23.6310256L123.800154 23.6310256 123.800154 41.6830769zM123.800154 20.1574359L126.527128 20.1574359C128.554667 20.1574359 129.569026 19.0841026 129.569026 16.9315385L129.569026 6.88820513C129.569026 4.86066667 128.411949 3.84748718 126.094256 3.84748718L123.800154 3.84748718 123.800154 20.1574359zM119.708513 45.1519487L119.708513.372717949 127.338615.372717949C129.526564.372717949 131.075231.662871795 131.986974 1.24435897 133.107487 2.02753846 133.659487 3.45589744 133.659487 5.52L133.659487 16.8725641C133.659487 18.5674872 133.323333 19.78 132.64159 20.5030256 131.959846 21.2213333 130.812205 21.6270769 129.195128 21.7049231L129.195128 21.8346667C132.296 21.9585128 133.848205 23.3455897 133.848205 25.9852821L133.848205 40.0058462C133.848205 42.0746667 133.267897 43.4794359 132.112 44.2260513 131.199077 44.8441026 129.610308 45.1519487 127.338615 45.1519487L119.708513 45.1519487z"/>
    <polygon fill="#373535" points="159.526 45.157 163.622 45.157 163.622 .373 159.526 .373"/>
    <path fill="#373535" d="M221.117282 41.6830769L223.600103 41.6830769C225.913077 41.6830769 227.074872 40.6687179 227.074872 38.642359L227.074872 26.3591795C227.074872 24.5439487 225.995641 23.6310256 223.844256 23.6310256L221.117282 23.6310256 221.117282 41.6830769zM221.117282 20.1574359L223.844256 20.1574359C225.871795 20.1574359 226.884974 19.0841026 226.884974 16.9315385L226.884974 6.88820513C226.884974 4.86066667 225.729077 3.84748718 223.411385 3.84748718L221.117282 3.84748718 221.117282 20.1574359zM217.025641 45.1519487L217.025641.372717949 224.655744.372717949C226.843692.372717949 228.397077.662871795 229.304103 1.24435897 230.423436 2.02753846 230.976615 3.45589744 230.976615 5.52L230.976615 16.8725641C230.976615 18.5674872 230.635744 19.78 229.954 20.5030256 229.276974 21.2213333 228.124615 21.6270769 226.512256 21.7049231L226.512256 21.8346667C229.613128 21.9585128 231.165333 23.3455897 231.165333 25.9852821L231.165333 40.0058462C231.165333 42.0746667 230.585026 43.4794359 229.429128 44.2260513 228.516205 44.8441026 226.922718 45.1519487 224.655744 45.1519487L217.025641 45.1519487zM260.998103 20.1574359L263.730974 20.1574359C265.752615 20.1574359 266.766974 19.0841026 266.766974 16.9315385L266.766974 6.88348718C266.766974 4.86066667 265.609897 3.84748718 263.293385 3.84748718L260.998103 3.84748718 260.998103 20.1574359zM266.955692 45.1519487L266.955692 26.3591795C266.955692 24.5439487 265.877641 23.6310256 263.730974 23.6310256L260.998103 23.6310256 260.998103 45.1519487 256.902923 45.1519487 256.902923.372717949 264.536564.372717949C266.725692.372717949 268.277897.662871795 269.186103 1.24435897 270.305436 2.02753846 270.858615 3.45589744 270.858615 5.52L270.858615 16.8725641C270.858615 18.5674872 270.521282 19.78 269.839538 20.5030256 269.157795 21.2213333 268.011333 21.6270769 266.397795 21.7049231L266.397795 21.8346667C269.498667 22.0422564 271.047333 23.4234359 271.047333 25.9852821L271.047333 45.1519487 266.955692 45.1519487zM300.819949 7.69025641L300.819949 37.8355897C300.819949 40.6463077 301.852 42.0510769 303.920821 42.0510769 305.989641 42.0510769 307.021692 40.6463077 307.021692 37.8355897L307.021692 7.69025641C307.021692 4.87953846 305.989641 3.47358974 303.920821 3.47358974 301.852 3.47358974 300.819949 4.87953846 300.819949 7.69025641M296.728308 37.9606154L296.728308 7.56523077C296.728308 2.52528205 299.123846 0 303.920821 0 308.716615 0 311.116872 2.52528205 311.116872 7.56523077L311.116872 37.9606154C311.116872 43.0052821 308.716615 45.5258462 303.920821 45.5258462 299.123846 45.5258462 296.728308 43.0052821 296.728308 37.9606154"/>
    <polygon fill="#373535" points="353.353 40.443 356.454 .373 360.306 .373 355.777 45.152 350.441 45.152 347.34 5.331 347.216 5.331 344.111 45.152 338.781 45.152 334.251 .373 338.098 .373 341.447 40.443 341.572 40.443 344.737 .373 349.824 .373 353.233 40.443"/>
    <polygon fill="#373535" points="394.354 .373 397.953 .373 397.953 45.157 392.056 45.157 386.848 5.331 386.848 45.157 383.251 45.157 383.251 .373 389.272 .373 394.354 38.701"/>
  </g>
</svg>
