<svg xmlns="http://www.w3.org/2000/svg" width="400" height="88" viewBox="0 0 400 88">
  <path fill-rule="evenodd" d="M125.157778,49.7555699 L111.54,19.6333477 L101.902222,19.6333477 L125.157778,69.4311255 L148.413333,19.6333477 L138.777778,19.6333477 L125.157778,49.7555699 Z M155.508889,68.2200144 L185.92,68.2200144 L185.92,59.4489033 L164.282222,59.4489033 L164.282222,48.3155699 L185.286667,48.3155699 L185.286667,39.5422366 L164.282222,39.5422366 L164.282222,28.346681 L185.748889,28.346681 L185.748889,19.6333477 L155.508889,19.6333477 L155.508889,68.2200144 Z M378.188889,59.4489033 L378.188889,19.6333477 L369.417778,19.6333477 L369.417778,68.2200144 L400,68.2200144 L400,59.4489033 L378.188889,59.4489033 Z M301.5,68.2200144 L310.271111,68.2200144 L310.271111,19.6333477 L301.5,19.6333477 L301.5,68.2200144 Z M235.775556,68.2200144 L225.68,68.2200144 L212.002222,48.3133477 L208.02,48.3133477 L208.02,68.2200144 L199.248889,68.2200144 L199.248889,19.6333477 L218.524444,19.6333477 C226.484444,19.6333477 233.004444,26.1533477 233.004444,34.1177921 C233.004444,40.8111255 228.215556,46.3489033 222.042222,47.966681 L235.775556,68.2200144 Z M223.946667,34.0600144 C223.946667,30.9444588 221.637778,28.406681 218.464444,28.406681 L207.964444,28.406681 L207.964444,39.5422366 L218.464444,39.5422366 C221.637778,39.5422366 223.946667,37.2333477 223.946667,34.0600144 Z M360.184444,68.2200144 L350.086667,68.2200144 L336.411111,48.3155699 L332.433333,48.3155699 L332.433333,68.2222366 L323.775556,68.2222366 L323.775556,19.6333477 L342.991111,19.6333477 C350.955556,19.6333477 357.473333,26.1533477 357.473333,34.1177921 C357.473333,40.8111255 352.802222,46.3489033 346.513333,47.966681 L360.188889,68.2200144 L360.184444,68.2200144 Z M348.413333,34.0600144 C348.413333,30.9444588 346.106667,28.406681 342.928889,28.406681 L332.431111,28.406681 L332.431111,39.5422366 L342.933333,39.5422366 C346.106667,39.5422366 348.413333,37.2333477 348.413333,34.0600144 Z M92.4977778,43.926681 C92.4977778,52.8733477 85.2266667,60.0822366 76.34,60.0822366 C67.3977778,60.0822366 60.1844444,52.8133477 60.1844444,43.926681 C60.1844444,34.9844588 67.4533333,27.7689033 76.34,27.7689033 C85.2844444,27.7689033 92.4977778,35.0422366 92.4977778,43.926681 Z M76.34,19.0000144 C62.5511111,19.0000144 51.4133333,30.1377921 51.4133333,43.926681 C51.4133333,57.6022366 62.5511111,68.7400144 76.34,68.7400144 C90.1333333,68.7400144 101.268889,57.6022366 101.268889,43.926681 C101.268889,30.1377921 90.1333333,19.0000144 76.34,19.0000144 Z M38.0844444,53.2755699 C35.14,57.4289033 30.3511111,60.1422366 24.9266667,60.1422366 C16.02,60.1577921 8.78666667,52.946681 8.77111111,44.0400144 C8.77111111,44.0222366 8.77111111,44.0022366 8.77111111,43.9844588 C8.73777778,35.0955699 15.9133333,27.8644588 24.8022222,27.8289033 C24.8444444,27.8289033 24.8844444,27.8289033 24.9244444,27.8289033 C30.2355556,27.8289033 35.0244444,30.4822366 37.9688889,34.5222366 L45.4688889,29.9644588 C40.8844444,23.106681 33.1777778,18.9911255 24.9288889,19 C11.1377778,19 0,30.1377921 0,43.926681 C0,57.6022366 11.1377778,68.7400144 24.9288889,68.7400144 C33.5266667,68.7400144 41.0822222,64.4111255 45.5266667,57.8355699 L38.0844444,53.2755699 Z M289.553333,39.5422366 L263.302222,39.5422366 L263.302222,48.3133477 L280.671111,48.3133477 C278.764444,55.0644588 272.533333,60.0844588 265.146667,60.0844588 C256.144444,60.0844588 248.933333,52.8133477 248.933333,43.926681 C248.933333,34.9844588 256.202222,27.7689033 265.146667,27.7689033 C270.513333,27.7689033 275.244444,30.4244588 278.188889,34.4622366 L285.688889,29.9044588 C281.244444,23.2711255 273.688889,19.0000144 265.146667,19.0000144 C251.355556,19.0000144 240.22,30.1377921 240.22,43.926681 C240.22,57.6022366 251.355556,68.7400144 265.146667,68.7400144 C278.822222,68.7400144 290.017778,57.6022366 290.017778,43.926681 C289.957778,42.426681 289.846667,40.9844588 289.553333,39.5422366 L289.553333,39.5422366 Z"/>
</svg>
