<svg xmlns="http://www.w3.org/2000/svg" width="400" height="88" viewBox="0 0 400 88">
  <path fill="#1A1919" fill-rule="evenodd" d="M297.222222,64.8286528 L304.683726,64.8286528 C316.276042,65.0061772 323.611111,60.1532409 323.611111,46.9512256 C323.611111,34.7618236 317.570577,28.5466597 307.152023,28.7259955 L297.222222,28.7259955 L297.222222,64.8286528 Z M291.666667,67.6072514 L291.666667,25.9500886 L307.876103,25.9500886 C321.335289,25.7083785 329.166667,33.2419833 329.166667,46.2648054 C329.166667,61.7563915 318.401564,67.7862276 305.73806,67.6072514 L291.666667,67.6072514 Z M379.919377,45.3849963 C386.57999,45.5035099 391.666667,42.9213508 391.666667,36.8789549 C391.666667,31.5404577 388.450828,28.665606 382.493121,28.7230672 L373.611111,28.7230672 L373.611111,45.3849963 L379.919377,45.3849963 Z M368.055556,25.952106 L382.869476,25.952106 C390.639256,25.7675863 397.099258,28.9044207 397.099258,36.6210331 C397.099258,44.2785993 388.504064,46.6902713 386.662755,47.0500847 L400,67.6111111 L393.957241,67.6111111 L381.390987,47.7125103 L373.508733,47.7125103 L373.508733,67.6111111 L368.055556,67.6111111 L368.055556,25.952106 Z M250,54.1211379 C250,63.5718566 255.483294,69 266.695264,69 C278.634158,69 283.333333,61.9870926 283.333333,54.4253977 L283.333333,25.9444444 L280.078781,25.9444444 L280.078781,54.4253977 C280.078781,62.1681551 274.955259,66.620054 267.298574,66.620054 C260.549621,66.620054 255.424254,63.082801 255.424254,55.1571144 L255.424254,25.9444444 L250,25.9444444 L250,54.1211379 Z M233.333333,49.5555556 C231.41391,45.1924607 228.4477,38.3462304 225.665104,31.5 C222.759468,38.5809995 218.984981,47.5491821 218.055556,49.5555556 L233.333333,49.5555556 Z M206.944444,67.6111111 L224.712628,25.9444444 L229.092753,25.9444444 L236.029812,41.9994568 L247.222222,67.6111111 L240.897859,67.6111111 L234.323947,51.8502336 L217.287647,51.8502336 L210.777053,67.6111111 L206.944444,67.6111111 Z M30.5555556,66.1519247 C34.1865579,68.0530649 38.6179627,69 42.8610376,69 C51.7238472,69 59.7222222,64.0708486 59.7222222,55.7592671 C59.7222222,41.7442648 35.4785017,46.4934803 35.4785017,35.686425 C35.4785017,31.7060262 39.3562163,28.2036388 45.2019794,28.2036388 C51.170157,28.2036388 55.0459884,31.1716713 56.6449101,32.4184994 L56.6449101,28.6780151 C54.4301493,27.6093053 50.1851912,25.9444444 44.9533838,25.9444444 C37.4465502,25.9444444 30.5555556,30.2229187 30.5555556,37.1095539 C30.5555556,51.7806858 54.6147127,46.4934803 54.6147127,57.4768364 C54.6147127,61.9934076 50.2454568,66.5045262 42.8610376,66.5045262 C37.1395723,66.5045262 32.6479018,63.656451 30.5555556,62.4078053 L30.5555556,66.1519247 Z M180.555556,67.6111111 L205.555556,67.6111111 L205.555556,64.8963276 L186.097919,64.8963276 L186.097919,25.9444444 L180.555556,25.9444444 L180.555556,67.6111111 Z M334.722222,67.6111111 L359.722222,67.6111111 L359.722222,64.9572303 L340.331687,64.9572303 L340.331687,46.263796 L357.951303,46.263796 L357.951303,43.7907777 L340.331687,43.7907777 L340.331687,28.4156172 L359.41805,28.4156172 L359.41805,25.9444444 L334.722222,25.9444444 L334.722222,67.6111111 Z M0,67.6111111 L25,67.6111111 L25,64.9572303 L5.548298,64.9572303 L5.548298,46.263796 L23.1710958,46.263796 L23.1710958,43.7907777 L5.548298,43.7907777 L5.548298,28.4765199 L24.755524,28.4765199 L24.755524,25.9444444 L0,25.9444444 L0,67.6111111 Z M130.555556,67.6111111 L155.555556,67.6111111 L155.555556,64.9572303 L136.151654,64.9572303 L136.151654,46.263796 L153.790718,46.263796 L153.790718,43.7907777 L136.151654,43.7907777 L136.151654,28.4765199 L155.250246,28.4765199 L155.250246,25.9444444 L130.555556,25.9444444 L130.555556,67.6111111 Z M98.6111111,67.6111111 L123.611111,67.6111111 L123.611111,64.9572303 L104.174981,64.9572303 L104.174981,46.263796 L121.839428,46.263796 L121.839428,43.7907777 L104.174981,43.7907777 L104.174981,28.4765199 L123.306165,28.4765199 L123.306165,25.9444444 L98.6111111,25.9444444 L98.6111111,67.6111111 Z M97.2222222,21.7777778 L122.222222,21.7777778 L122.222222,19 L97.2222222,19 L97.2222222,21.7777778 Z M73.0212007,28.4765199 L73.0212007,67.6111111 L78.4258416,67.6111111 L78.4258416,28.4765199 L91.6666667,28.4765199 L91.6666667,25.9444444 L59.7222222,25.9444444 L59.7222222,28.4765199 L73.0212007,28.4765199 L73.0212007,28.4765199 Z"/>
</svg>
