<svg xmlns="http://www.w3.org/2000/svg" width="400" height="88" viewBox="0 0 400 88">
  <g fill="#1A1919" fill-rule="evenodd" transform="translate(13 10)">
    <polyline points="49.731 54.953 49.731 62.925 0 62.925 0 8.119 8.953 8.119 8.953 54.953 49.731 54.953"/>
    <polyline points="42.627 28.418 52.776 9.134 43.135 9.134 35.522 28.418 42.627 28.418"/>
    <path d="M123.959688 17.6927359C120.754678 12.6278303 116.071503 8.36643388 110.558727 5.46420703 105.04595 2.56198018 98.7035718 1.01492537 92.3592037 1.01492537 86.0148356 1.01492537 79.6704675 2.56198018 74.157691 5.46420703 68.6449146 8.36643388 63.9637299 12.6278303 60.7587198 17.6927359 57.5517203 22.7596402 55.8208955 28.6320523 55.8208955 34.5064633 55.8208955 40.3808743 57.5517203 46.2532864 60.7587198 51.3201907 63.9637299 56.3870951 68.6449146 60.6464927 74.157691 63.5487196 79.6704675 66.4529452 86.0148356 68 92.3592037 68 98.7035718 68 105.04595 66.4529452 110.558727 63.5487196 116.071503 60.6464927 120.754678 56.3870951 123.959688 51.3201907 127.166687 46.2532864 128.895522 40.3808743 128.895522 34.5064633 128.895522 28.6320523 127.166687 22.7596402 123.959688 17.6927359zM116.268459 47.8802924C113.875146 51.8538647 110.375697 55.2058168 106.247581 57.4924197 102.117474 59.7790227 97.358701 61.0002766 92.5979381 61.0002766 87.8371752 61.0002766 83.0784018 59.7790227 78.9482957 57.4924197 74.8181897 55.2058168 71.3207299 51.8538647 68.927417 47.8802924 66.5341041 43.9067201 65.248917 39.30753 65.248917 34.7103387 65.248917 30.1111487 66.5341041 25.5139574 68.927417 21.5403851 71.3207299 17.564814 74.8181897 14.2148607 78.9482957 11.9282577 83.0784018 9.63965599 87.8371752 8.4204009 92.5979381 8.4204009 97.358701 8.4204009 102.117474 9.63965599 106.247581 11.9282577 110.375697 14.2148607 113.875146 17.564814 116.268459 21.5403851 118.659783 25.5139574 119.946959 30.1111487 119.946959 34.7103387 119.946959 39.30753 118.659783 43.9067201 116.268459 47.8802924L116.268459 47.8802924zM191.400431 31.7546656C189.780586 35.3248258 186.707497 37.3886993 184.304827 38.6362497 181.902158 39.8858057 180.169907 40.3190387 178.425613 40.254856L195.880597 62.9253731 185.906607 62.9253731 169.025695 41.0029851 147.006241 41.0029851 147.006241 62.9253731 138.029851 62.9253731 138.029851 8.11940299 173.937418 8.11940299C177.564506 8.11940299 181.247797 8.83544073 184.493508 10.660635 187.741227 12.4858292 190.551367 15.2577176 191.872133 19.1828881 193.192899 23.1080586 193.022283 28.1845055 191.400431 31.7546656zM181.360202 31.3795983C183.253032 29.781049 184.371066 27.1555773 184.272712 24.5521683 184.176364 21.9487594 182.863627 19.3674133 180.984848 17.7949382 179.106068 16.2224632 176.705406 16.0920921 174.435214 16.0920921L147.006241 16.0920921 147.006241 33.0323016 174.435214 33.0323016C176.859964 33.0323016 179.469379 32.9781475 181.360202 31.3795983L181.360202 31.3795983z"/>
    <polyline points="242.272 31.538 242.272 39.009 211.937 39.009 211.937 54.953 252.716 54.953 252.716 62.925 202.985 62.925 202.985 8.119 252.716 8.119 252.716 16.092 211.937 16.092 211.937 31.538 242.272 31.538"/>
    <polyline points="243.582 0 229.881 0 224.299 7.104 243.582 0"/>
    <path d="M270.861391,48.9736685 L263.740007,62.9253731 L254.746269,62.9253731 L282.727011,8.11940299 L291.72075,8.11940299 L319.701493,62.9253731 L310.707754,62.9253731 L303.586371,48.9736685 L270.861391,48.9736685 Z M287.223881,16.9284724 L274.423088,41.9998219 L300.024673,41.9998219 L287.223881,16.9284724 L287.223881,16.9284724 Z"/>
    <polyline points="373.493 54.953 373.493 62.925 323.761 62.925 323.761 8.119 332.712 8.119 332.712 54.953 373.493 54.953"/>
    <path d="M369.060046,18.9709337 L368.985878,17.6653529 C368.972216,17.4254299 368.991734,17.1855069 368.898048,16.9135942 C368.804363,16.6436809 368.638462,16.3457765 368.468657,16.1498395 C368.2969,15.9559017 368.119288,15.8639312 367.929966,15.8419383 C368.287141,15.7139794 368.60333,15.4620603 368.829736,15.0881803 C369.058094,14.7162997 369.19667,14.2204589 369.188863,13.690629 C369.183008,13.1587998 369.026866,12.5929814 368.751665,12.1731162 C368.156372,11.2794032 367.108266,11.1254526 366.19093,11.1714378 L362.328358,11.1714378 L362.328358,20.2985075 L363.827325,20.2985075 L363.827325,16.5497111 L366.066016,16.5497111 C366.31194,16.5497111 366.719862,16.515722 367.127784,16.8416173 C367.668427,17.4954074 367.428358,18.3551314 367.523995,19.0848971 C367.531803,19.5207572 367.57279,19.9326249 367.750402,20.2985075 L369.432836,20.2985075 L369.432836,20.016598 C369.124455,19.8886391 369.09713,19.4327854 369.060046,18.9709337 Z M367.207807,14.9502246 C366.741332,15.2561264 366.263146,15.2561264 365.929392,15.2501283 L363.815614,15.2501283 L363.815614,12.4710206 C364.736854,12.4830167 365.667853,12.4310334 366.583238,12.507009 C366.942365,12.5529943 367.360046,12.7609275 367.570838,13.2267779 C367.764064,13.8305841 367.771871,14.4783761 367.207807,14.9502246 L367.207807,14.9502246 Z"/>
    <path d="M372.473002,11.9263614 C371.809118,10.7759721 370.837003,9.80347807 369.687061,9.13933578 C368.53712,8.4751935 367.209352,8.11940299 365.881585,8.11940299 C364.551842,8.11940299 363.224074,8.4751935 362.074133,9.13933578 C360.924192,9.80347807 359.952076,10.7759721 359.288192,11.9263614 C358.624309,13.0767508 358.268657,14.4050353 358.268657,15.7313433 C358.268657,17.0596279 358.624309,18.3879124 359.288192,19.5383017 C359.952076,20.6886911 360.924192,21.6611851 362.074133,22.3233508 C363.224074,22.9874931 364.551842,23.3432836 365.881585,23.3432836 C367.209352,23.3432836 368.53712,22.9874931 369.687061,22.3233508 C370.837003,21.6611851 371.809118,20.6886911 372.473002,19.5383017 C373.136885,18.3879124 373.492537,17.0596279 373.492537,15.7313433 C373.492537,14.4050353 373.136885,13.0767508 372.473002,11.9263614 Z M371.560162,19.0421716 C370.99507,20.0186189 370.169167,20.8448436 369.191124,21.4062019 C368.213081,21.9695369 367.084874,22.2719588 365.956667,22.2719588 C364.82846,22.2719588 363.698277,21.9695369 362.72221,21.4062019 C361.744167,20.8448436 360.918264,20.0186189 360.353172,19.0421716 C359.788081,18.067701 359.485777,16.9390544 359.485777,15.8123845 C359.485777,14.6857145 359.788081,13.5590446 360.353172,12.5825973 C360.918264,11.6081266 361.744167,10.781902 362.72221,10.218567 C363.698277,9.65720863 364.82846,9.3547867 365.956667,9.3547867 C367.084874,9.3547867 368.213081,9.65720863 369.191124,10.218567 C370.169167,10.781902 370.99507,11.6081266 371.560162,12.5825973 C372.123277,13.5590446 372.425581,14.6857145 372.425581,15.8123845 C372.425581,16.9390544 372.123277,18.067701 371.560162,19.0421716 L371.560162,19.0421716 Z"/>
  </g>
</svg>
