<svg xmlns="http://www.w3.org/2000/svg" width="316" height="88" viewBox="0 0 316 88">
  <g fill="#222" fill-rule="evenodd">
    <path d="M93.4046538 54.0074693C93.4189616 53.8264586 93.4189616 53.6454479 93.4046538 53.462645 93.2329606 53.4250091 93.1131331 53.4250091 93.0451712 53.462645L92.6123614 53.7171353C91.8111267 54.1848956 90.4250621 54.7583949 88.4488024 55.4394253 86.5172544 56.1061182 83.8756836 56.6796175 80.5330325 57.1617154 77.3924785 57.6169304 73.8960189 57.5685414 70.0418653 57.0201327 68.3589147 56.7781877 66.7260412 56.355232 65.1539758 55.7494734 64.744416 55.5917611 64.4886648 55.407166 64.3938758 55.1885194 64.3706257 55.1419226 64.3330679 53.1472204 64.2758368 49.2079972L64.2543752 33.4851559C64.4511069 33.1912375 65.0466675 32.8991113 66.0374801 32.6051929 67.6810844 32.1177185 69.8934222 32.0191483 72.6798591 32.3130667 74.0659236 32.4600259 76.0403949 32.9206175 78.6068499 33.6930494L79.0879484 33.8382164 79.569047 33.9833834C79.6620474 34.0102661 79.8015481 33.9762146 79.9839721 33.8866054 79.9839721 30.2377162 79.9410488 27.8881613 79.8605676 26.8361485L64.1256053 26.492049 63.8895272 10.192124C63.8662771 9.35875788 63.9270851 8.83902415 64.0773166 8.63650722 64.5548382 7.98594397 65.6404397 7.59524758 67.3287557 7.4590415 67.3502174 7.45545713 67.5219105 7.43574309 67.8331044 7.39093846 68.3607031 7.31925105 70.5015022 7.28340734 74.2519245 7.28340734 76.8666682 7.28340734 78.4011758 7.30670575 78.8518704 7.35509475 80.3094737 7.50922269 81.5649799 7.8354004 83.0923336 8.88024441 83.1567185 8.92504904 83.2997962 9.02003486 83.519778 9.16340968 83.8577989 9.38922503 84.1368003 9.58278103 84.3567822 9.75124645 84.7162647 10.0164899 84.9899007 10.1777865 85.1759016 10.2279677L85.1168821 1.55916762 52.1500077 1.63981596C53.037089 3.08252509 53.6702075 4.37110629 54.0547286 5.49659864 54.482173 6.72424554 54.7057318 7.96443774 54.7379243 9.21359087L55.2243882 52.1507654C55.2100805 53.3318155 55.2333306 54.4125032 55.2816193 55.3928285 55.3817736 57.283584 55.0670028 58.6510213 54.3355185 59.4987249 53.3786868 60.6080876 52.9172614 60.7532546 51.1556181 59.9593166 49.2151278 59.082938 46.8883278 57.3463104 44.1609105 54.7530184 42.8410194 53.4949043 41.353012 51.9482484 39.6933115 50.1112585 34.8876916 44.7956371 30.1393028 38.9782037 25.448145 32.664335 25.4374141 32.5335055 25.478549 32.4170135 25.5643955 32.3166511 28.7568152 31.5979848 32.3713138 29.7323199 33.8468018 28.7717086 38.7686723 25.5869954 41.0364527 21.2481149 40.657297 15.7425218 40.3782957 11.6635081 38.1319769 7.68485684 34.7124215 5.41415812 32.7236424 4.09690195 31.273193 3.13449846 26.9200561 2.00542175 25.0063928 1.50540206 22.9514403 1.29213201 20.7534102 1.36919598 19.5157887 1.41041624 14.338167 1.42296154 5.22412196 1.40503969 2.07283716 1.39966313.330867019 1.44984432 0 1.55916762.042923289 1.75272363.18957786 2.07710916.434598301 2.53770077 1.24477538 4.03955202 2.00487529 7.37839316 2.05495246 8.80497263L2.35541548 57.1222873C2.21233785 57.8678364 1.94585577 58.9180569 1.55954617 60.2837021 1.40394924 60.8356951.978293295 61.8285658.28615526 63.262314L12.6999281 63.6243354C13.4653935 63.6583869 13.9268188 63.5580246 14.0895696 63.3053264 12.6748895 60.8195655 11.6035958 58.6151776 11.6465191 55.1311695L12.2867915 7.07551385C14.1986663 6.56115668 18.8451123 6.56653324 21.6351261 7.13824034 24.9598926 7.81927074 27.315308 9.05587857 28.7156803 10.8462716 30.5095161 13.142061 31.2231158 15.8625982 30.8546909 19.0007146 30.3449768 23.3682701 27.6318673 26.8271876 22.7028429 29.3918047 21.0735464 30.2377162 19.1849217 30.9008247 17.0298149 31.3703773 15.0499782 31.8022939 14.5939183 32.7772427 15.6670005 34.2880549 15.8816169 34.5909342 16.783006 35.7038812 18.3711677 37.626896 19.6678087 39.1932659 20.676506 40.4477956 21.402625 41.3833163 21.5492795 41.573288 23.8099061 44.3332533 28.1916585 49.6739653 30.0606101 51.9482484 31.1801925 53.3318155 31.5521944 53.821082 32.7665657 55.4250878 34.0363797 56.916186 35.3544824 58.2889999L35.7229073 58.6725275C38.003207 61.0435886 40.4408921 62.5346868 43.0484819 63.1494063 44.3308152 63.4540778 45.6739564 63.5759464 47.0850596 63.5293496 47.3783687 63.5168043 52.1535846 63.5132199 61.4214381 63.5132199L84.154685 63.4415325C87.1646807 63.4415325 88.713496 63.427195 88.7975541 63.4038966 89.1588251 63.2963655 90.4268506 62.1278607 90.9830649 61.1385745 92.4531876 58.4968934 93.2597877 56.1222479 93.4046538 54.0074693M253.142494 52.7979721C253.156753 52.6185824 253.167448 52.4338111 253.169231 52.2544214 253.081889 52.1539631 252.982071 52.1091157 252.864428 52.1091157 251.276242 53.2464463 246.185494 55.2627864 238.816742 55.9929024 231.6708 56.7014917 225.198633 55.008053 224.252139 53.9873257L224.054284 32.2686166C224.33235 31.7555621 225.421442 31.3537292 227.326908 31.0559423 231.991645 30.3276202 236.602908 31.7986156 238.880911 32.5359072 239.173237 32.6309837 239.331877 32.6740372 239.365744 32.6704494 239.497647 32.6453349 239.608161 32.5807546 239.697285 32.4802964 239.631333 28.0404017 239.576076 25.686809 239.526167 25.4231062 239.219581 25.3944038 236.961185 25.3800526 232.740285 25.3800526 232.048684 25.3800526 231.360649 25.3800526 230.670831 25.3800526L230.159261 25.3800526 229.636996 25.4195184 229.096906 25.4195184C228.016726 25.4195184 226.938328 25.4195184 225.861714 25.4195184L225.323406 25.4195184 224.802923 25.3979916 224.273528 25.4195184C224.157667 25.4231062 224.040024 25.3262357 223.918816 25.1271132L223.706701 8.25551331C223.628272 7.13612167 224.665673 6.45085308 226.822468 6.2104709 228.109414 6.06337136 229.87763 5.99161548 232.125331 5.99161548L233.699256 5.95394365C236.898799 5.95394365 238.829219 6.01673004 239.497647 6.13692113 241.1197 6.43112021 242.622326 7.14509116 244.012657 8.28062786 244.388759 8.58379643 244.66326 8.79188847 244.837943 8.89593448 244.969846 8.63402554 245.017973 8.11917715 244.975193 7.35677099 244.896764 5.77814176 244.884287 3.96451204 244.943109 1.91946963 244.978758.638627279 244.841507 0 244.529574 0L212.058227.435916935C212.988679 2.03607293 213.576896 3.14828897 213.815747 3.76897728 214.583994 5.74405772 214.605384 6.05978356 214.66064 9.09146924L215.181123 53.1208735C215.202513 54.7102662 215.011788 55.9516428 214.603601 56.8450034 213.897741 58.3895486 213.232878 59.1716876 212.607229 59.1878327 211.910282 59.2111534 210.559165 58.5527932 208.562793 57.218134 207.163551 56.2853076 205.329384 54.6851516 203.053163 52.4140782L182.634912 27.8251341 196.826978 10.3794872C199.662896 6.91009067 201.976548 3.95016087 203.771501 1.51046115 204.168993.966910403 204.37576.676299113 204.388237.633245588 204.431016.495115531 204.439929.35877937 204.418539.215267622 204.238509.22244321 204.058479.22244321 203.882014.215267622 202.901653.184771376 192.885926.136336161 191.704145.267290631 192.324446 2.15088232 191.950126 4.01653505 190.586533 5.86245491L173.556767 28.5947158C173.080846 29.583153 173.246616 30.5823535 174.059425 31.5851419L191.739794 52.9683923C194.058794 55.8063371 195.857312 57.7527152 197.128216 58.8093205L197.531056 59.1465731C201.030054 62.0544799 204.172557 62.2769231 206.974608 62.2769231 208.404153 62.2769231 209.830133 62.2769231 211.259678 62.2769231 215.202513 62.2769231 217.831664 62.2500146 219.141783 62.2051672 219.799516 62.1782588 224.216489 62.1692893 232.399832 62.1692893L232.941704 62.1692893 233.465752 62.1298235C233.8169 62.104709 235.059285 62.0921517 237.196472 62.0921517L237.736562 62.0921517C244.757731 62.0921517 248.329811 62.0831822 248.445672 62.0598616 249.468813 61.8463878 250.980351 59.6327191 251.495487 58.5240909 251.855547 57.7473335 252.967811 54.7730525 253.142494 52.7979721M315.446154.0769737551L303.497617 0C303.481355.0984548031 303.481355.159317772 303.497617.184378995L303.799357.635481002C304.438973 1.59496781 304.977407 2.74599396 305.425499 4.08855946 305.855524 5.37921242 306.075957 6.63227355 306.092218 7.84595276L306.095832 8.39550957 306.551152 42.4626615C306.574641 44.6340374 304.840088 44.4335477 304.352245 44.0934311L266.956377.0769737551 255.876923.309685108C255.927514.404559736 256.119038.719615106 256.449687 1.26201157 257.036905 2.21254794 258.476945 5.28075762 258.511275 7.59176036 258.529343 8.72309555 258.572707 12.5610428 258.643173 19.1073921 258.64498 19.4134971 258.655821 19.9594737 258.670275 20.7471121 258.697378 22.0520858 258.784105 28.6038054 258.925038 40.4058512 258.925038 40.5347375 258.95214 42.1708773 259.006345 45.321431 259.10572 51.5384043 259.14005 54.8142641 259.102107 55.1508005 259.006345 55.9903515 257.96742 59.7280538 257.333224 60.922042L257.073042 61.4035755C256.894166 61.740112 256.812859 61.9620828 256.825506 62.0748583 256.897779 62.1446717 256.959212 62.1840536 257.007996 62.1840536L268.591554 62.0372665C268.615043 62.0372665 268.629498 62.0229458 268.631304 61.9978845 268.591554 61.8815289 268.345826 61.3999954 267.885086 60.5568642 267.164162 59.2339897 266.23184 56.5792902 266.181249 54.7677218 266.130658 52.823687 266.000566 41.8325508 265.787361 21.7925231 265.787361 21.5508613 265.762066 20.0847798 265.722315 17.3996488 265.706054 16.0928851 266.042123 15.4627743 266.737751 15.5093166L299.40877 53.2228764C301.761257 56.0547946 303.745152 57.8574125 307.250393 60.7143919 308.670558 61.8725784 310.043746 62.7425609 311.375376 63.3279194 313.081019 64.0797561 313.913966 63.4317445 313.866988 61.3838846 313.8435 60.1594648 313.749545 52.9024508 313.58693 39.6110524 313.58151 39.2530349 313.548987 37.6204753 313.487555 34.7169536L313.187622 8.588839C313.194849 6.58394119 313.288804 5.23600544 313.46768 4.53966146 313.850727 3.07178986 314.414456 1.73996488 315.158869.533446024L315.446154.0769737551M122.498846 0C125.320354 0 128.327955.393589004 131.521647 1.18615864 134.692299 1.97333665 137.497857 3.10557899 139.936548 4.58288566 145.978334 8.24200535 149.301404 12.2425949 151.791492 18.0206253 152.000624 18.505872 152.296599 19.3595468 152.682961 20.5906357 153.579747 23.4517941 154.118527 26.6741917 154.299303 30.2668147 154.82036 40.6403111 150.139704 50.8610448 140.361901 56.6732221 135.294883 59.6907378 129.359436 61.5131088 122.559104 62.1421323L122.559104 62.1421323 96.2953257 62.2769231C96.2864642 62.1601044 96.4654669 61.8114457 96.827017 61.232744 97.496948 60.1687957 98.0534516 59.0383505 98.4947554 57.8396114 98.9094746 56.7145579 99.150508 55.8411138 99.208994 55.2210764 99.2444401 54.8544455 99.2036771 50.2841403 99.0884773 41.5011748L99.0884773 41.5011748 98.702115 9.12802991C98.6773027 6.45378133 98.5426076 4.25759064 96.3981193.8572692 96.1230769.420547155 96.0560646.170734956 96.1889874.104238184L96.1889874.104238184zM119.431277 6.8316138C112.12875 6.6190359 107.970215 6.94951415 106.953846 7.82662126 107.293244 38.993399 107.475716 54.6151948 107.504911 54.6920087 107.556004 54.8152682 107.680084 54.9474595 107.877154 55.0867962 107.891752 55.0975144 108.23115 55.2439967 108.908121 55.5226702 112.997317 57.2250798 118.292652 57.30368 124.797777 55.7602573 130.284708 54.4597808 134.888475 52.0124554 138.618201 48.4147085 140.612619 46.4890028 142.169105 44.082764 143.289483 41.1959919 144.716413 37.5303629 145.105078 33.5735559 144.723712 29.6774853 144.021195 22.4766324 142.218372 19.1146862 140.254974 16.3654645 138.9503 14.5344364 136.60736 12.5051213 136.488753 12.4122302 131.923306 8.88772438 126.242954 7.02454164 119.431277 6.8316138zM173.292308 62.1296496L173.274296 61.9859682 172.964502 61.5459438C172.948292 61.5243915 172.867241 61.3609539 172.721349 61.0592229L172.487202 60.5635219C172.4836 60.5509498 172.397145 60.3946962 172.236845 60.0839851 171.280444 58.2969473 170.781531 56.1974023 170.745508 53.7799621L170.347458 5.60357606C170.599616 4.02487627 171.221007 2.41025611 172.206225.757919583 172.487202.283770839 172.54844.0431044313 172.386339.0341243414L171.584835 0 159.308324 0 158.400554.107761078C158.391548.195765959 158.492411.407696079 158.701343.734571349 160.217895 3.1089071 160.995984 5.61076014 161.035609 8.23474239L161.579551 55.1144034C161.45167 56.4380687 160.309753 60.2492188 159.5893 61.5046354L159.308324 61.9859682C159.302921 62.0003363 159.302921 62.0488288 159.308324 62.1296496 159.367761 62.2284306 159.522659 62.2769231 159.783823 62.2769231L167.955556 62.2769231C171.175978 62.2769231 172.951894 62.2284306 173.292308 62.1296496M96.9809669 73.1076923L102.892308 88 100.817539 88 99.1496245 83.6363691 92.9216376 83.6363691 91.3420891 88 89.3538462 88 95.0405891 73.1076923 96.9809669 73.1076923zM96.0460617 74.4615385L93.4153846 81.2307692 98.8307692 81.2307692 96.0460617 74.4615385z"/>
    <polyline points="281.911 88 283.774 88 283.774 81.837 289.723 73.108 287.503 73.108 282.889 79.991 278.537 73.108 276.185 73.108 281.911 81.97 281.911 88"/>
    <path d="M313.508943,84.8846462 C313.32733,84.9751036 313.149385,85.0637519 312.923744,85.1524002 C311.709318,85.7729382 310.542589,86.08773 309.46208,86.08773 C306.809423,86.08773 304.648405,84.2622991 304.110903,81.5033476 C304.017344,80.9678396 303.976986,80.4323317 303.976986,79.900442 C303.976986,78.1618503 304.514488,76.428686 305.818803,75.0917252 C306.85345,74.0261367 308.33571,73.6679253 309.641859,73.6679253 C310.902147,73.6679253 311.977152,74.0261367 312.384407,74.2902724 L312.877882,74.6032551 C312.923744,74.6484838 313.013634,74.6900942 313.149385,74.6900942 C313.688722,74.6900942 313.73275,74.0695563 313.73275,73.9356793 C313.73275,73.7113449 313.778612,73.4888196 313.778612,73.3567518 L313.822639,73.2228748 L313.73275,73.0473874 C313.32733,72.4648415 312.476131,72.153668 311.34976,71.9311427 C310.722368,71.7990749 310.135335,71.7538462 309.595997,71.7538462 C306.358141,71.7538462 303.795372,73.4888196 302.714863,76.027055 C302.175526,77.4092445 301.907692,78.7443961 301.907692,80.0777386 C301.907692,82.1727326 302.579112,84.1302313 303.659621,85.4201542 C305.009798,87.1533185 307.123119,88 309.865666,88 C311.303898,88 312.877882,87.513339 313.598833,86.9778311 C313.778612,86.8439541 314.092308,86.5762001 314.092308,86.1745691 L314.092308,84.6168922 L313.508943,84.8846462"/>
    <polyline points="117.542 88 119.466 88 124.554 73.108 122.503 73.108 118.481 85.392 114.462 73.108 112.369 73.108 117.542 88"/>
    <polyline points="254.523 88 256.272 88 256.272 76.438 263.729 88 265.354 88 265.354 73.108 263.522 73.108 263.522 84.759 256.106 73.108 254.523 73.108 254.523 88"/>
    <polyline points="161.108 88 162.856 88 162.856 76.439 170.271 88 171.938 88 171.938 73.108 170.106 73.108 170.106 84.76 162.69 73.108 161.108 73.108 161.108 88"/>
    <path d="M186.830769,73.1076923 L186.830769,82.9043704 C186.830769,84.575537 187.429666,85.9378234 188.417932,86.7698358 C189.228101,87.4304465 190.556847,88 192.224328,88 C193.33831,88 194.024509,87.8250274 194.621659,87.605419 C196.203584,86.9037433 197.062642,85.9788883 197.44852,84.2666568 C197.619633,83.6953178 197.661538,83.1704002 197.661538,82.5954903 L197.661538,73.1076923 L195.863103,73.1076923 L195.863103,82.5954903 C195.863103,83.7399537 195.606434,84.4416294 195.307858,84.8826317 C195.009283,85.3629135 194.578008,85.7146441 194.066415,85.9788883 C193.554821,86.2431326 192.952432,86.285983 192.311631,86.285983 C190.897328,86.285983 190.043507,85.8931875 189.573819,85.4075494 C188.971431,84.8826317 188.63095,84.1791705 188.63095,83.0347071 L188.63095,73.1076923 L186.830769,73.1076923"/>
    <polyline points="27.52 88 29.345 88 29.345 74.909 33.846 74.909 33.846 73.108 23.015 73.108 23.015 74.863 27.561 74.863 27.52 88"/>
    <polyline points="211.2 88 222.031 88 222.031 86.29 213.207 86.29 213.207 81.252 221.096 81.252 221.096 79.585 213.207 79.585 213.207 74.863 221.838 74.863 221.793 73.108 211.246 73.108 211.2 88"/>
    <polyline points="136.738 88 147.569 88 147.569 86.29 138.747 86.29 138.747 81.252 146.634 81.252 146.634 79.587 138.747 79.587 138.747 74.865 147.379 74.865 147.333 73.108 136.784 73.108 136.738 88"/>
    <polyline points="47.385 88 49.227 88 49.227 81.118 56.459 81.118 56.459 88 58.215 88 58.215 73.108 56.459 73.108 56.459 79.452 49.227 79.452 49.227 73.108 47.427 73.108 47.385 88"/>
    <path d="M1.35384615,84.0125784 C1.35384615,85.3707939 2.0781526,86.6435646 3.40140477,87.387646 C3.95508133,87.7365454 4.80997188,88 6.0479091,88 C8.86678444,88 10.8307692,85.984928 10.8307692,83.0940473 C10.8307692,81.5631623 10.2318235,80.1604443 9.41871988,79.4163629 C8.69615455,78.7132239 7.49826312,78.2343772 6.17501095,78.2343772 C5.23828771,78.2343772 4.38339717,78.4533294 3.61382156,78.9357362 L4.25629531,74.7738649 L10.1465086,74.7738649 L10.1465086,73.1076923 L2.88951511,73.1076923 L1.73689283,81.1679803 L2.97657118,81.2979275 L3.18724685,81.2979275 L3.27430292,81.1234778 C3.95508133,80.334894 4.85175879,79.8969896 5.87902034,79.8969896 C6.85927161,79.8969896 7.75769019,80.2921716 8.13899575,80.7282958 C8.60735737,81.1679803 9.0356732,82.0420089 9.0356732,83.0495449 C9.0356732,85.1963442 7.71416216,86.38011 6.13496516,86.38011 C3.91503554,86.38011 3.23077488,84.9311094 3.18724685,83.9680759 L3.10367303,83.6209566 L1.35384615,83.6209566 L1.35384615,84.0125784"/>
  </g>
</svg>
