<svg xmlns="http://www.w3.org/2000/svg" xmlns:xlink="http://www.w3.org/1999/xlink" width="236" height="88" viewBox="0 0 236 88">
  <defs>
    <polygon id="tresemme-a" points=".028 .427 235.25 .427 235.25 68.273 .028 68.273"/>
  </defs>
  <g fill="none" fill-rule="evenodd">
    <mask id="tresemme-b" fill="#fff">
      <use xlink:href="#tresemme-a"/>
    </mask>
    <polygon fill="#222" points=".028 68.273 235.25 68.273 235.25 .427 .028 .427" mask="url(#tresemme-b)"/>
    <path fill="#FFFFFE" d="M226.307747,53.5484632 C226.307747,52.4151158 225.390232,51.5003789 224.256421,51.5003789 C223.127705,51.5003789 222.205095,52.4151158 222.205095,53.5484632 C222.205095,54.6808842 223.127705,55.6011789 224.256421,55.6011789 C225.390232,55.6011789 226.307747,54.6808842 226.307747,53.5484632 Z M226.713011,53.5484632 C226.713011,54.9045895 225.611158,56.0050526 224.256421,56.0050526 C222.898905,56.0050526 221.799832,54.9045895 221.799832,53.5484632 C221.799832,52.1909474 222.898905,51.0895579 224.256421,51.0895579 C225.611158,51.0895579 226.713011,52.1909474 226.713011,53.5484632 Z M224.500968,53.3659789 C224.597305,53.3571789 224.670947,53.3391158 224.748758,53.3071579 C224.814526,53.2789053 224.873811,53.2321263 224.911789,53.1686737 C224.956253,53.1070737 224.972,53.0149053 224.972,52.9046737 C224.972,52.8064842 224.956253,52.7300632 224.914568,52.6740211 C224.880295,52.6179789 224.830274,52.5735158 224.772379,52.5448 C224.715874,52.5160842 224.642695,52.4952421 224.563958,52.4813474 C224.494484,52.4725474 224.418063,52.4660632 224.342105,52.4660632 L223.754358,52.4660632 L223.754358,53.3743158 L224.218905,53.3743158 C224.323116,53.3743158 224.411579,53.3682947 224.500968,53.3659789 Z M225.481937,54.9629474 L225.005811,54.9629474 L224.224926,53.7332632 L223.754358,53.7332632 L223.754358,54.9629474 L223.312968,54.9629474 L223.312968,52.1043368 L224.418063,52.1043368 C224.760337,52.1043368 225.009516,52.1724211 225.168379,52.3090526 C225.335579,52.4429053 225.418484,52.6476211 225.418484,52.9222737 C225.418484,53.1797895 225.342526,53.3682947 225.202653,53.4891789 C225.054442,53.6072842 224.880295,53.6786105 224.663074,53.7031579 L225.481937,54.9629474 Z M213.353221,30.3386947 C209.608126,30.3386947 207.670737,33.5053053 207.670737,36.9525895 L218.4864,36.9525895 C218.881474,34.3630737 217.5184,30.3386947 213.353221,30.3386947 Z M221.938779,39.8626105 L207.632758,39.8626105 C207.711958,45.1101895 210.627537,47.4116211 214.111411,47.6135579 C216.057137,47.6135579 217.684211,47.4639579 219.726274,45.7826947 L221.535368,48.2689263 C219.413179,50.0988632 217.176126,50.8172211 214.111411,50.8172211 C207.837937,50.8172211 204.099789,46.2416842 204.099789,39.4925474 C204.099789,38.9538947 204.099789,38.8042947 204.099789,38.3054737 C204.099789,30.1585263 209.430737,27.4268211 213.021137,27.4268211 C219.267284,27.4268211 222.469558,31.9773474 221.938779,39.8626105 Z M123.521432,30.3386947 C119.775874,30.3386947 117.835705,33.5053053 117.835705,36.9525895 L128.650442,36.9525895 C129.044126,34.3630737 127.681516,30.3386947 123.521432,30.3386947 Z M132.101432,39.8626105 L117.797726,39.8626105 C117.876926,45.1101895 120.793895,47.4116211 124.273137,47.6135579 C126.223495,47.6135579 127.845937,47.4639579 129.894484,45.7826947 L131.702189,48.2689263 C129.577684,50.0988632 127.342484,50.8172211 124.273137,50.8172211 C118.006147,50.8172211 114.259663,46.2416842 114.259663,39.4925474 C114.259663,38.9538947 114.259663,38.8042947 114.259663,38.3054737 C114.259663,30.1585263 119.595705,27.4268211 123.179621,27.4268211 C129.435032,27.4268211 132.633137,31.9773474 132.101432,39.8626105 Z M197.997221,29.2632421 C196.719832,28.1229474 194.855158,27.5653053 192.480547,27.5653053 C190.283789,27.5653053 187.981895,28.4605895 185.736968,29.9825263 C184.528126,28.3545263 182.424463,27.5653053 179.551495,27.5653053 C177.819747,27.5653053 175.910611,28.0724632 174.071411,29.1557895 L173.668926,28.0002105 L170.572716,28.0002105 L170.572716,50.3406316 L174.071411,50.3406316 L174.071411,31.9412211 C175.710989,31.1177263 177.0912,30.7133895 179.551495,30.7092211 C182.010863,30.7448842 183.468884,31.4822316 183.498989,34.2282947 L183.498989,50.3406316 L187.000463,50.3406316 L187.000463,31.9398316 C188.577053,31.1538526 189.989221,30.7115368 192.480547,30.7092211 C194.943621,30.7448842 196.397011,31.4822316 196.425263,34.2282947 L196.425263,50.3406316 L199.923495,50.3406316 L199.923495,34.3547368 C199.923495,32.1250947 199.274611,30.4086316 197.997221,29.2632421 Z M164.032463,29.2632421 C162.755537,28.1229474 160.891326,27.5653053 158.517179,27.5653053 C156.319958,27.5653053 154.021768,28.4605895 151.776842,29.9825263 C150.564295,28.3545263 148.458779,27.5653053 145.588126,27.5653053 C143.859158,27.5653053 141.944,28.0724632 140.108042,29.1557895 L139.708337,28.0002105 L136.610737,28.0002105 L136.610737,50.3406316 L140.108042,50.3406316 L140.108042,31.9412211 C141.754105,31.1177263 143.127368,30.7133895 145.588126,30.7092211 C148.046105,30.7448842 149.506905,31.4822316 149.535621,34.2282947 L149.535621,50.3406316 L153.035705,50.3406316 L153.035705,31.9398316 C154.613221,31.1538526 156.025853,30.7115368 158.517179,30.7092211 C160.976547,30.7448842 162.4304,31.4822316 162.458653,34.2282947 L162.458653,50.3406316 L165.962905,50.3406316 L165.962905,34.3547368 C165.962905,32.1250947 165.307537,30.4086316 164.032463,29.2632421 Z M99.9068632,31.1714526 C97.2877053,30.8500211 95.2928842,30.5475789 94.0599579,29.8537684 C92.8538947,29.1576421 92.2554947,28.2081684 92.2314105,26.0595789 C92.3249684,22.7493895 93.2901895,20.2617684 99.7012211,20.1621895 C102.949347,20.1654316 105.235495,20.5855158 108.208505,21.8369684 L108.931032,22.1421895 L108.931032,18.0339789 L108.625811,17.8945684 C106.723158,17.0210526 103.893263,16.3082452 99.7498526,16.3082452 C94.9941474,16.3045474 92.0178947,17.6884632 90.2680842,19.6420632 C88.5196632,21.5914947 88.0379789,24.0253895 88.0379789,26.0151158 C87.9689684,31.6406316 91.2624842,34.2218105 99.1505263,35.1082947 C101.906316,35.4514947 103.750147,35.8831579 104.811242,36.6686737 C105.854274,37.4453895 106.320211,38.5643789 106.337347,40.7472421 C106.258147,44.4997474 104.703326,47.2620211 97.9282526,47.3477053 C93.3948632,47.3426105 90.8910316,46.2416842 88.7188211,45.5261053 L88.0379789,45.3019368 L88.0379789,49.2619368 L88.3455158,49.3990316 C90.5501474,50.3665684 94.7213474,51.1933053 97.8870316,51.2021053 C97.8902737,51.2021053 97.8935158,51.2021053 97.9,51.2021053 C102.9336,51.2021053 106.172463,49.8033684 108.1256,47.7552842 C110.082442,45.7053474 110.708632,43.0746105 110.708632,40.7472421 C110.756337,34.2500632 106.465179,31.9398316 99.9068632,31.1714526 Z M84.2771368,20.6906526 L84.2771368,16.7482526 L64.3493053,16.7482526 L64.3493053,50.7588632 L84.7143579,50.7588632 L84.7143579,46.8173895 L68.5427368,46.8173895 L68.5427368,34.6752421 L83.1581474,34.6752421 L83.1581474,30.7337684 L68.5427368,30.7337684 L68.5427368,20.6906526 L84.2771368,20.6906526 Z M48.4273263,20.6906526 L41.0418105,20.6906526 L41.0418105,32.3974316 L48.4273263,32.3974316 C54.1283368,32.2913684 54.5905684,29.9987368 54.7063579,26.5454316 C54.5905684,23.0912 54.1283368,20.7990316 48.4273263,20.6906526 Z M61.3781474,50.7588632 L56.1907789,50.7588632 L48.9618105,36.3194526 C48.5695158,36.3421474 48.1832421,36.3421474 47.8029895,36.3421474 L41.0418105,36.3421474 L41.0418105,50.7588632 L36.8493053,50.7588632 L36.8493053,16.7482526 L47.8029895,16.7482526 C52.0232842,16.7482526 54.9013474,17.6634526 56.7243368,19.4053895 C58.5482526,21.1482526 59.2128842,23.6423579 59.2096421,26.5454316 C59.2545684,30.8384421 57.6492632,34.2644211 53.3215158,35.6196211 L61.3781474,50.7588632 Z M10.5498105,16.7482526 L10.5498105,20.6906526 L19.7472,20.6906526 L19.7472,50.7588632 L23.9392421,50.7588632 L23.9392421,20.6906526 L33.1324632,20.6906526 L33.1324632,16.7482526 L10.5498105,16.7482526 Z M214.271663,25.1453053 L212.523705,25.1453053 L216.221558,17.0479158 L220.976337,17.0479158 L214.335116,25.0707368 L214.271663,25.1453053 L214.271663,25.1453053 Z" mask="url(#tresemme-b)"/>
    <path fill="#222" d="M7.25351579 82.8436632C7.55595789 83.1136842 8.02791579 83.2484632 8.66985263 83.2484632 9.25713684 83.2484632 9.71149474 83.1030316 10.032 82.8117053 10.3534316 82.5208421 10.5136842 82.1433684 10.5136842 81.6797474 10.5136842 81.1985263 10.3617684 80.8173474 10.0593263 80.5348211 9.75642105 80.2522947 9.28909474 80.1105684 8.65642105 80.1105684 8.02328421 80.1105684 7.55595789 80.2458105 7.25351579 80.5158316 6.95061053 80.7853895 6.79915789 81.1735158 6.79915789 81.6797474 6.79915789 82.1859789 6.95061053 82.5736421 7.25351579 82.8436632zM3.41069474 78.1754947L6.69077895 78.1754947 6.69077895 78.9976 6.71764211 78.9976C7.03444211 78.6604211 7.43877895 78.4075368 7.93111579 78.2384842 8.42345263 78.0698947 9.03621053 77.9851368 9.768 77.9851368 10.3284211 77.9851368 10.8610526 78.0597053 11.3672842 78.2069895 11.8735158 78.3547368 12.3232421 78.5802947 12.716 78.8836632 13.1092211 79.1874947 13.4190737 79.5733053 13.6446316 80.0415579 13.8701895 80.5093474 13.9832 81.0554105 13.9832 81.6797474 13.9832 82.3040842 13.8701895 82.8501474 13.6446316 83.3184 13.4190737 83.7861895 13.1092211 84.172 12.716 84.4758316 12.3232421 84.7792 11.8735158 85.0052211 11.3672842 85.1525053 10.8610526 85.2997895 10.3284211 85.3738947 9.768 85.3738947 8.38547368 85.3738947 7.40496842 85.0492211 6.82648421 84.3998737L6.79915789 84.3998737 6.79915789 87.5752842 3.41069474 87.5752842 3.41069474 78.1754947 3.41069474 78.1754947zM15.7459789 78.1754947L19.0260632 78.1754947 19.0260632 79.5038316 19.0533895 79.5038316C19.4781053 78.9804632 19.9588632 78.5969684 20.4970526 78.3519579 21.0343158 78.1078737 21.6063158 77.9851368 22.2116632 77.9851368 22.5909895 77.9851368 22.9619789 78.0106105 23.3232421 78.0615579L23.3232421 80.8956211C22.9527158 80.8108632 22.6433263 80.7478737 22.3950737 80.7052632 22.1458947 80.6635789 21.8911579 80.6422737 21.6285474 80.6422737 21.3034105 80.6422737 20.9935579 80.6719158 20.6999158 80.7307368 20.4072 80.7900211 20.1422737 80.8891368 19.9074526 81.0280842 19.6726316 81.1674947 19.4845895 81.3592421 19.3447158 81.6037895 19.2048421 81.8488 19.1349053 82.1475368 19.1349053 82.5018526L19.1349053 85.0955368 15.7459789 85.0955368 15.7459789 78.1754947M28.4402105 82.9006316C28.7519158 83.1836211 29.2419368 83.3244211 29.9112 83.3244211 30.5888 83.3244211 31.0811368 83.1836211 31.3886737 82.9006316 31.6957474 82.6181053 31.8499789 82.1938526 31.8499789 81.6292632 31.8499789 81.0725474 31.6934316 80.6529263 31.3821895 80.3704 31.0700211 80.0878737 30.5795368 79.9466105 29.9112 79.9466105 29.2419368 79.9466105 28.7519158 80.0878737 28.4402105 80.3704 28.1285053 80.6529263 27.9724211 81.0725474 27.9724211 81.6292632 27.9724211 82.1938526 28.1285053 82.6181053 28.4402105 82.9006316zM25.7427789 78.8012211C26.6241684 78.1986526 28.0131789 77.8971368 29.9112 77.8971368 31.8092211 77.8971368 33.1986947 78.1986526 34.0791579 78.8012211 34.9600842 79.4047158 35.4010105 80.3472421 35.4010105 81.6292632 35.4010105 82.9112842 34.9624 83.8556632 34.0861053 84.4633263 33.2093474 85.0700632 31.8175579 85.3738947 29.9112 85.3738947 28.0039158 85.3738947 26.6121263 85.0700632 25.7358316 84.4633263 24.8590737 83.8556632 24.4209263 82.9112842 24.4209263 81.6292632 24.4209263 80.3472421 24.8618526 79.4047158 25.7427789 78.8012211L25.7427789 78.8012211zM38.0437895 80.1490105L36.4718316 80.1490105 36.4718316 78.1754947 38.0437895 78.1754947 38.0437895 77.4413895C38.0437895 76.8003789 38.2698105 76.3450947 38.7218526 76.0750737 39.1738947 75.8055158 39.9459789 75.6702737 41.0399579 75.6702737 41.4554105 75.6702737 41.8509474 75.6767579 42.2261053 75.6892632 42.6012632 75.7022316 42.9467789 75.7212211 43.2626526 75.7466947L43.2626526 77.4163789 42.2464842 77.4163789C41.9477474 77.4163789 41.7374737 77.4603789 41.6156632 77.5493053 41.4938526 77.6377684 41.4331789 77.7790316 41.4331789 77.9730947L41.4331789 78.1754947 43.2626526 78.1754947 43.2626526 80.1490105 41.4331789 80.1490105 41.4331789 85.0955368 38.0437895 85.0955368 38.0437895 80.1490105M51.8435789 80.7812211C51.8069895 80.4102316 51.6106105 80.1156632 51.2535158 79.8956632 50.8968842 79.6765895 50.4244632 79.5668211 49.8376421 79.5668211 49.2318316 79.5668211 48.7640421 79.6622316 48.4342737 79.8516632 48.1040421 80.0415579 47.8937684 80.3514105 47.8039158 80.7812211L51.8435789 80.7812211zM55.2190737 83.0210526C54.9564632 83.7630316 54.3923368 84.3364211 53.5243789 84.7412211 52.6202947 85.1631579 51.4230316 85.3738947 49.9321263 85.3738947 48.1248842 85.3738947 46.7400421 85.0621895 45.7771368 84.4378526 44.8151579 83.8135158 44.3344 82.8774737 44.3344 81.6292632 44.3344 80.4398737 44.7966316 79.5209684 45.7234105 78.8711579 46.6497263 78.2218105 47.9479579 77.8971368 49.6204211 77.8971368 50.4698526 77.8971368 51.2336 77.9707789 51.9112 78.1185263 52.5892632 78.2658105 53.1784 78.5103579 53.68 78.8521684 54.1816 79.1935158 54.5701895 79.6552842 54.8457684 80.2374737 55.1213474 80.8196632 55.2598316 81.532 55.2598316 82.3754105L47.8039158 82.3754105C47.8039158 82.5106526 47.8428211 82.6496 47.9187789 82.7931789 47.9961263 82.9367579 48.1184 83.0715368 48.2856 83.1979789 48.4518737 83.3244211 48.6672421 83.4277053 48.9289263 83.5078316 49.1910737 83.5879579 49.4986105 83.6277895 49.8510737 83.6277895 50.2938526 83.6277895 50.6523368 83.5796211 50.9283789 83.4823579 51.2039579 83.3855579 51.4322947 83.2313263 51.6129263 83.0210526L55.2190737 83.0210526 55.2190737 83.0210526zM59.312 82.3504C58.3722526 82.2577684 57.7145684 82.0382316 57.3403368 81.6927158 56.9647158 81.3467368 56.7771368 80.8571789 56.7771368 80.2249684 56.7771368 79.4153684 57.1814737 78.8248421 57.9906105 78.4533895 58.7992842 78.0828632 60.0396211 77.8971368 61.7111579 77.8971368 62.3442947 77.8971368 62.9426947 77.9309474 63.5077474 77.9981053 64.0723368 78.0657263 64.5869053 78.1856842 65.0533053 78.3589053 65.5183158 78.5316632 65.8911579 78.7743579 66.1709053 79.0860632 66.4515789 79.3982316 66.6002526 79.7863579 66.6187789 80.2504421L62.7958737 80.2504421C62.7958737 80.0563789 62.7097263 79.9132632 62.5378947 79.8197053 62.3216 79.7020632 61.9872 79.6427789 61.5351579 79.6427789 61.0655158 79.6427789 60.7464 79.6849263 60.5796632 79.7692211 60.4124632 79.8539789 60.3286316 79.9720842 60.3286316 80.1235368 60.3286316 80.2249684 60.3962526 80.3152842 60.5319579 80.3958737 60.6676632 80.476 60.9029474 80.5288 61.2373474 80.5538105L64.4632421 80.8196632C65.3492632 80.8956211 65.9902737 81.1082105 66.3881263 81.4583579 66.7855158 81.8085053 66.9846737 82.2915789 66.9846737 82.9066526 66.9846737 83.7843368 66.5669053 84.4146947 65.7309053 84.7981895 64.8949053 85.1816842 63.5688842 85.3738947 61.7523789 85.3738947 59.9808 85.3738947 58.6909053 85.1858526 57.8822316 84.8111579 57.0735579 84.4355368 56.6418947 83.8135158 56.5877053 82.9446316L60.5727158 82.9446316C60.6088421 83.2058526 60.7491789 83.3920421 60.9928 83.5013474 61.2012211 83.5856421 61.5217263 83.6277895 61.9557053 83.6277895 62.3706947 83.6277895 62.6624842 83.5814737 62.8296842 83.4888421 62.9973474 83.3962105 63.0802526 83.2651368 63.0802526 83.0970105 63.0802526 82.9789053 63.0441263 82.8811789 62.9723368 82.8056842 62.8996211 82.7301895 62.7824421 82.6838737 62.6198737 82.6667368L59.312 82.3504M68.6654737 85.0955368L72.0539368 85.0955368 72.0539368 78.1754947 68.6654737 78.1754947 68.6654737 85.0955368zM68.6654737 77.4923368L72.0539368 77.4923368 72.0539368 75.7466947 68.6654737 75.7466947 68.6654737 77.4923368zM77.8355368 82.9006316C78.1472421 83.1836211 78.6372632 83.3244211 79.3060632 83.3244211 79.9836632 83.3244211 80.4764632 83.1836211 80.7835368 82.9006316 81.0906105 82.6181053 81.2443789 82.1938526 81.2443789 81.6292632 81.2443789 81.0725474 81.0882947 80.6529263 80.7765895 80.3704 80.4648842 80.0878737 79.9748632 79.9466105 79.3060632 79.9466105 78.6372632 79.9466105 78.1472421 80.0878737 77.8355368 80.3704 77.5238316 80.6529263 77.3677474 81.0725474 77.3677474 81.6292632 77.3677474 82.1938526 77.5238316 82.6181053 77.8355368 82.9006316zM75.1376421 78.8012211C76.0190316 78.1986526 77.4085053 77.8971368 79.3060632 77.8971368 81.2040842 77.8971368 82.5930947 78.1986526 83.4744842 78.8012211 84.3554105 79.4047158 84.7958737 80.3472421 84.7958737 81.6292632 84.7958737 82.9112842 84.3577263 83.8556632 83.4809684 84.4633263 82.6046737 85.0700632 81.2128842 85.3738947 79.3060632 85.3738947 77.3992421 85.3738947 76.0074526 85.0700632 75.1306947 84.4633263 74.2544 83.8556632 73.8162526 82.9112842 73.8162526 81.6292632 73.8162526 80.3472421 74.2567158 79.4047158 75.1376421 78.8012211L75.1376421 78.8012211zM86.5581895 78.1754947L89.8387368 78.1754947 89.8387368 79.0355789 89.8656 79.0355789C90.0735579 78.7743579 90.4510316 78.5339789 90.9975579 78.3144421 91.5440842 78.0953684 92.1883368 77.9851368 92.9293895 77.9851368 93.9233263 77.9851368 94.7185684 78.2069895 95.3151158 78.6497684 95.9116632 79.0930105 96.2094737 79.7733895 96.2094737 80.6932211L96.2094737 85.0955368 92.8210105 85.0955368 92.8210105 81.5153263C92.8210105 81.0933895 92.7075368 80.7798316 92.4819789 80.5728 92.2554947 80.3662316 91.9349895 80.2624842 91.5195368 80.2624842 91.0494316 80.2624842 90.6701053 80.4000421 90.3806316 80.6742316 90.0916211 80.9479579 89.9471158 81.3592421 89.9471158 81.9076211L89.9471158 85.0955368 86.5581895 85.0955368 86.5581895 78.1754947M105.183158 81.9451368C104.939074 81.9960842 104.627368 82.0400842 104.248042 82.0780632 103.868253 82.1160421 103.343958 82.1605053 102.675621 82.2114526 102.576042 82.2193263 102.499158 82.2281263 102.444968 82.2364632 101.830358 82.2869474 101.522821 82.5143579 101.522821 82.9196211 101.522821 83.4425263 101.943368 83.7037474 102.783537 83.7037474 103.099874 83.7037474 103.396295 83.6829053 103.671874 83.6407579 103.947453 83.5986105 104.199874 83.5226526 104.431453 83.4128842 104.661179 83.3035789 104.844126 83.1535158 104.979832 82.9640842 105.115074 82.7741895 105.183158 82.5361263 105.183158 82.2489684L105.183158 81.9451368zM98.4321684 80.2754526C98.5317474 79.7946947 98.6970947 79.4024 98.9277474 79.0985684 99.1574737 78.7956632 99.4807579 78.5548211 99.8966737 78.3774316 100.302863 78.2088421 100.816042 78.0865684 101.434821 78.0106105 102.054526 77.9346526 102.824758 77.8971368 103.746442 77.8971368 105.490232 77.8971368 106.730568 78.1055579 107.466989 78.5233263 108.203874 78.9406316 108.572084 79.6599158 108.572084 80.6802526L108.572084 84.0200842C108.572084 84.2650947 108.598947 84.4712 108.6536 84.6397895 108.707326 84.8088421 108.783747 84.9607579 108.883789 85.0955368L105.413811 85.0955368C105.349895 84.8931368 105.3096 84.6652632 105.291537 84.4123789 104.912211 84.7412211 104.421726 84.9839158 103.821011 85.1395368 103.219368 85.2960842 102.472295 85.3738947 101.577011 85.3738947 100.366316 85.3738947 99.4446316 85.1946526 98.8124211 84.8361684 98.1797474 84.4776842 97.8634105 83.8769684 97.8634105 83.0330947 97.8634105 82.3754105 98.1394526 81.8613053 98.6896842 81.4898526 99.2408421 81.1188632 100.122695 80.9081263 101.333389 80.8571789L104.193389 80.7307368C104.528253 80.7140632 104.763074 80.6635789 104.898316 80.5788211 105.034021 80.4945263 105.102105 80.3555789 105.102105 80.1615158 105.102105 79.9424421 104.964084 79.7757053 104.688505 79.6622316 104.412463 79.5478316 104.026189 79.4908632 103.529221 79.4908632 103.068379 79.4908632 102.686737 79.5464421 102.383832 79.6552842 102.080926 79.7655158 101.893811 79.9720842 101.821558 80.2754526L98.4321684 80.2754526 98.4321684 80.2754526z"/>
    <polygon fill="#222" points="110.714 85.096 114.102 85.096 114.102 75.747 110.714 75.747"/>
    <path fill="#222" d="M127.133137 78.1782737L128.717137 78.1782737 124.841432 86.2835368C124.662189 86.6443368 124.490358 86.9393684 124.325011 87.1681684 124.160126 87.3969684 123.980884 87.5711158 123.788211 87.6892211 123.594611 87.8082526 123.380168 87.8897684 123.143958 87.9342316 122.908211 87.9777684 122.615958 88 122.266737 88 122.049979 88 121.705853 87.9819368 121.234358 87.9472L121.192211 87.9472 121.192211 86.8384C121.267242 86.8467368 121.361726 86.856 121.474737 86.8643368 121.691495 86.8819368 121.8712 86.8912 122.012463 86.8912 122.238947 86.8912 122.424674 86.8754526 122.571495 86.8444211 122.717389 86.8138526 122.842442 86.7633684 122.946189 86.6929684 123.049474 86.6225684 123.146737 86.5234526 123.236126 86.3960842 123.325516 86.2682526 123.432042 86.0806737 123.554779 85.8347368L123.879916 85.2011368 120.456716 78.1782737 122.083326 78.1782737 124.629305 83.6435368 127.133137 78.1782737M141.108 81.4782737C141.003789 81.5843368 140.850947 81.6653895 140.648084 81.7223579 140.444758 81.7802526 140.136295 81.8349053 139.721768 81.8877053L138.123411 82.0720421C137.538442 82.1433684 137.111874 82.2619368 136.843242 82.4286737 136.574611 82.5963368 136.440295 82.8561684 136.440295 83.2077053 136.440295 83.5333053 136.600547 83.7973053 136.921053 83.9997053 137.241558 84.2021053 137.656547 84.3035368 138.166021 84.3035368 138.561558 84.3035368 138.939032 84.2572211 139.297516 84.1650526 139.655537 84.0724211 139.969095 83.9385684 140.237726 83.7621053 140.506821 83.5861053 140.718484 83.3795368 140.874568 83.1419368 141.030189 82.9043368 141.108 82.6445053 141.108 82.3629053L141.108 81.4782737zM135.350947 80.3430737C135.445432 79.4982737 135.796505 78.8869053 136.404632 78.5080421 137.012758 78.1301053 137.887663 77.9402105 139.028421 77.9402105 139.442947 77.9402105 139.849137 77.9689263 140.245137 78.0263579 140.641137 78.0837895 141.003789 78.1847579 141.334021 78.3301895 141.664253 78.4751579 141.930105 78.6798737 142.133432 78.9438737 142.335832 79.2078737 142.437263 79.5288421 142.437263 79.9072421L142.437263 83.6301053C142.437263 84.0265684 142.649853 84.2243368 143.074105 84.2243368 143.215368 84.2243368 143.380253 84.2067368 143.568758 84.1715368L143.568758 85.0955368C143.229263 85.1483368 142.861516 85.1752 142.465979 85.1752 142.079242 85.1752 141.781895 85.1061895 141.574863 84.9704842 141.367368 84.8338526 141.239537 84.5805053 141.193221 84.2109053 140.919032 84.5541053 140.4832 84.8269053 139.883874 85.0293053 139.285011 85.2321684 138.669937 85.3331368 138.038189 85.3331368 137.453221 85.3331368 136.960884 85.2692211 136.560253 85.1418526 136.159158 85.0144842 135.848379 84.8491368 135.626526 84.6467368 135.405137 84.4443368 135.249979 84.2243368 135.159663 83.9867368 135.070274 83.7486737 135.025347 83.5027368 135.025347 83.2470737 135.025347 82.5963368 135.263874 82.1035368 135.74 81.7686737 136.216126 81.4342737 137.038695 81.2096421 138.208168 81.0952421L139.820884 80.9373053C140.273389 80.8933053 140.600842 80.8159579 140.803705 80.7061895 141.006105 80.5959579 141.108 80.3963368 141.108 80.1054737 141.108 79.8762105 141.053347 79.6872421 140.945432 79.5376421 140.836589 79.3885053 140.683747 79.2717895 140.485053 79.1879579 140.287747 79.1045895 140.063116 79.0471579 139.813474 79.0165895 139.563832 78.9855579 139.283621 78.9698105 138.971916 78.9698105 138.292926 78.9698105 137.745937 79.0740211 137.331411 79.2801263 136.916421 79.4876211 136.6992 79.8414737 136.680211 80.3430737L135.350947 80.3430737 135.350947 80.3430737zM151.009389 76.0528421L152.423874 76.0528421 152.423874 78.1782737 154.545137 78.1782737 154.545137 79.2078737 152.423874 79.2078737 152.423874 83.4717053C152.423874 83.7361684 152.520211 83.9274526 152.713811 84.0460211 152.906947 84.1650526 153.192253 84.2243368 153.5688 84.2243368 153.842989 84.2243368 154.168126 84.1933053 154.545137 84.1321684L154.545137 85.2405053C154.168126 85.3021053 153.640126 85.3331368 152.961137 85.3331368 152.291411 85.3331368 151.798611 85.1900211 151.482737 84.9042526 151.167326 84.6180211 151.009389 84.2155368 151.009389 83.6963368L151.009389 79.2078737 149.481432 79.2078737 149.481432 78.1782737 151.009389 78.1782737 151.009389 76.0528421M163.640168 85.0955368L162.226147 85.0955368 162.226147 84.0525053 162.197432 84.0525053C161.886189 84.5013053 161.473979 84.8269053 160.959874 85.0293053 160.445768 85.2321684 159.892295 85.3331368 159.298063 85.3331368 158.354611 85.3331368 157.600589 85.1330526 157.035074 84.7324211 156.469095 84.3322526 156.186105 83.7185684 156.186105 82.8909053L156.186105 78.1782737 157.600589 78.1782737 157.600589 82.6269053C157.600589 83.1461053 157.779368 83.5425684 158.138316 83.8149053 158.496337 84.0877053 159.047958 84.2243368 159.793179 84.2243368 160.472168 84.2243368 161.046947 84.0441684 161.518905 83.6833684 161.9904 83.3225684 162.226147 82.8163368 162.226147 82.1646737L162.226147 78.1782737 163.640168 78.1782737 163.640168 85.0955368M176.964295 81.4782737C176.860547 81.5843368 176.707242 81.6653895 176.504379 81.7223579 176.301516 81.7802526 175.993053 81.8349053 175.578526 81.8877053L173.979705 82.0720421C173.3952 82.1433684 172.968632 82.2619368 172.7 82.4286737 172.430905 82.5963368 172.296589 82.8561684 172.296589 83.2077053 172.296589 83.5333053 172.456842 83.7973053 172.777811 83.9997053 173.097853 84.2021053 173.512842 84.3035368 174.021853 84.3035368 174.418316 84.3035368 174.795326 84.2572211 175.153811 84.1650526 175.511832 84.0724211 175.825853 83.9385684 176.094484 83.7621053 176.363116 83.5861053 176.575242 83.3795368 176.730863 83.1419368 176.886947 82.9043368 176.964295 82.6445053 176.964295 82.3629053L176.964295 81.4782737zM171.207242 80.3430737C171.301726 79.4982737 171.653263 78.8869053 172.261389 78.5080421 172.869516 78.1301053 173.744421 77.9402105 174.885179 77.9402105 175.299705 77.9402105 175.705432 77.9689263 176.101895 78.0263579 176.497432 78.0837895 176.860547 78.1847579 177.190316 78.3301895 177.521011 78.4751579 177.786863 78.6798737 177.989726 78.9438737 178.192589 79.2078737 178.294021 79.5288421 178.294021 79.9072421L178.294021 83.6301053C178.294021 84.0265684 178.506147 84.2243368 178.9304 84.2243368 179.071663 84.2243368 179.237011 84.2067368 179.425516 84.1715368L179.425516 85.0955368C179.086021 85.1483368 178.718274 85.1752 178.322274 85.1752 177.936 85.1752 177.638189 85.1061895 177.431158 84.9704842 177.223663 84.8338526 177.095832 84.5805053 177.049516 84.2109053 176.775789 84.5541053 176.339495 84.8269053 175.740632 85.0293053 175.141768 85.2321684 174.526695 85.3331368 173.894947 85.3331368 173.309979 85.3331368 172.817642 85.2692211 172.417011 85.1418526 172.015916 85.0144842 171.704674 84.8491368 171.483284 84.6467368 171.261895 84.4443368 171.106274 84.2243368 171.016421 83.9867368 170.927032 83.7486737 170.882105 83.5027368 170.882105 83.2470737 170.882105 82.5963368 171.120168 82.1035368 171.596295 81.7686737 172.072421 81.4342737 172.895453 81.2096421 174.064463 81.0952421L175.677642 80.9373053C176.129684 80.8933053 176.457137 80.8159579 176.660463 80.7061895 176.8624 80.5959579 176.964295 80.3963368 176.964295 80.1054737 176.964295 79.8762105 176.910105 79.6872421 176.801726 79.5376421 176.693347 79.3885053 176.540042 79.2717895 176.341811 79.1879579 176.144042 79.1045895 175.919874 79.0471579 175.670232 79.0165895 175.420589 78.9855579 175.139916 78.9698105 174.828674 78.9698105 174.149684 78.9698105 173.602695 79.0740211 173.187705 79.2801263 172.772716 79.4876211 172.555495 79.8414737 172.536505 80.3430737L171.207242 80.3430737 171.207242 80.3430737z"/>
    <polygon fill="#222" points="180.953 85.096 182.367 85.096 182.367 75.591 180.953 75.591"/>
    <path fill="#222" d="M192.226274 82.5606737C191.943747 83.5555368 191.481053 84.2664842 190.840042 84.6930526 190.198568 85.1196211 189.373684 85.3331368 188.364463 85.3331368 187.657684 85.3331368 187.044926 85.2321684 186.526189 85.0293053 186.006989 84.8269053 185.587832 84.5522526 185.267326 84.2044211 184.945895 83.8570526 184.711074 83.4652211 184.559621 83.0293895 184.409095 82.5940211 184.3336 82.1433684 184.3336 81.6765053 184.3336 80.5936421 184.668463 79.7141053 185.337726 79.0360421 185.686947 78.6845053 186.113053 78.4135579 186.617895 78.2245895 187.122274 78.0351579 187.700295 77.9402105 188.350568 77.9402105 189.378779 77.9402105 190.241179 78.1583579 190.939158 78.5937263 191.637137 79.0295579 192.056295 79.6613053 192.198021 80.4885053L190.698316 80.4885053C190.613558 80.0309053 190.380126 79.6765895 189.998484 79.4255579 189.616379 79.1745263 189.100421 79.0494737 188.449684 79.0494737 187.582189 79.0494737 186.9296 79.2847579 186.490526 79.7553263 186.052379 80.2263579 185.832842 80.8534737 185.832842 81.6366737 185.832842 82.4203368 186.052379 83.0474526 186.490526 83.5180211 186.9296 83.9890526 187.582189 84.2243368 188.449684 84.2243368 189.080968 84.2243368 189.581179 84.0904842 189.948926 83.8218526 190.316674 83.5532211 190.576042 83.1331368 190.727032 82.5606737L192.226274 82.5606737M199.878568 81.4782737C199.774358 81.5843368 199.621516 81.6653895 199.418653 81.7223579 199.215326 81.7802526 198.906863 81.8349053 198.492337 81.8877053L196.893516 82.0720421C196.309011 82.1433684 195.882442 82.2619368 195.614274 82.4286737 195.345179 82.5963368 195.2104 82.8561684 195.2104 83.2077053 195.2104 83.5333053 195.370653 83.7973053 195.691621 83.9997053 196.012126 84.2021053 196.426653 84.3035368 196.936126 84.3035368 197.332126 84.3035368 197.709137 84.2572211 198.067621 84.1650526 198.426105 84.0724211 198.739663 83.9385684 199.008295 83.7621053 199.277389 83.5861053 199.489516 83.3795368 199.645137 83.1419368 199.800758 82.9043368 199.878568 82.6445053 199.878568 82.3629053L199.878568 81.4782737zM194.121516 80.3430737C194.215537 79.4982737 194.567074 78.8869053 195.174737 78.5080421 195.783326 78.1301053 196.657768 77.9402105 197.798526 77.9402105 198.213979 77.9402105 198.619705 77.9689263 199.015242 78.0263579 199.411705 78.0837895 199.774358 78.1847579 200.104589 78.3301895 200.434821 78.4751579 200.700674 78.6798737 200.904 78.9438737 201.1064 79.2078737 201.207832 79.5288421 201.207832 79.9072421L201.207832 83.6301053C201.207832 84.0265684 201.420421 84.2243368 201.844674 84.2243368 201.985474 84.2243368 202.150821 84.2067368 202.339789 84.1715368L202.339789 85.0955368C201.999832 85.1483368 201.632084 85.1752 201.236084 85.1752 200.849347 85.1752 200.552463 85.1061895 200.344968 84.9704842 200.137474 84.8338526 200.010105 84.5805053 199.963326 84.2109053 199.689137 84.5541053 199.253768 84.8269053 198.654905 85.0293053 198.055579 85.2321684 197.440505 85.3331368 196.808758 85.3331368 196.223789 85.3331368 195.731453 85.2692211 195.330821 85.1418526 194.930189 85.0144842 194.618484 84.8491368 194.397558 84.6467368 194.175242 84.4443368 194.020084 84.2243368 193.930695 83.9867368 193.840842 83.7486737 193.796379 83.5027368 193.796379 83.2470737 193.796379 82.5963368 194.034442 82.1035368 194.510568 81.7686737 194.986695 81.4342737 195.809263 81.2096421 196.978737 81.0952421L198.590989 80.9373053C199.043958 80.8933053 199.371411 80.8159579 199.573811 80.7061895 199.776674 80.5959579 199.878568 80.3963368 199.878568 80.1054737 199.878568 79.8762105 199.823916 79.6872421 199.715537 79.5376421 199.607158 79.3885053 199.454316 79.2717895 199.256084 79.1879579 199.057853 79.1045895 198.833684 79.0471579 198.584042 79.0165895 198.3344 78.9855579 198.053726 78.9698105 197.742021 78.9698105 197.063495 78.9698105 196.516505 79.0740211 196.101516 79.2801263 195.686989 79.4876211 195.469768 79.8414737 195.450779 80.3430737L194.121516 80.3430737 194.121516 80.3430737zM203.866821 78.1782737L205.281768 78.1782737 205.281768 79.2208421 205.309558 79.2208421C205.6208 78.7720421 206.033474 78.4469053 206.547579 78.2440421 207.061221 78.0416421 207.615621 77.9402105 208.209389 77.9402105 209.152379 77.9402105 209.906863 78.1407579 210.472842 78.5409263 211.038358 78.9415579 211.321347 79.5557053 211.321347 80.3829053L211.321347 85.0955368 209.906863 85.0955368 209.906863 80.6469053C209.906863 80.1272421 209.727621 79.7317053 209.369137 79.4589053 209.010653 79.1856421 208.459032 79.0494737 207.714737 79.0494737 207.035284 79.0494737 206.460042 79.2301053 205.989011 79.5909053 205.516589 79.9517053 205.281768 80.4574737 205.281768 81.1086737L205.281768 85.0955368 203.866821 85.0955368 203.866821 78.1782737M221.180126 82.5606737C220.8976 83.5555368 220.434442 84.2664842 219.793895 84.6930526 219.152421 85.1196211 218.327537 85.3331368 217.318316 85.3331368 216.611537 85.3331368 215.998316 85.2321684 215.479579 85.0293053 214.960842 84.8269053 214.541221 84.5522526 214.220716 84.2044211 213.899747 83.8570526 213.664463 83.4652211 213.513474 83.0293895 213.362947 82.5940211 213.287453 82.1433684 213.287453 81.6765053 213.287453 80.5936421 213.621853 79.7141053 214.291579 79.0360421 214.6408 78.6845053 215.066905 78.4135579 215.571284 78.2245895 216.075663 78.0351579 216.653684 77.9402105 217.304421 77.9402105 218.332168 77.9402105 219.195032 78.1583579 219.893011 78.5937263 220.590526 79.0295579 221.010147 79.6613053 221.151411 80.4885053L219.652168 80.4885053C219.566947 80.0309053 219.333516 79.6765895 218.951874 79.4255579 218.570232 79.1745263 218.054274 79.0494737 217.403537 79.0494737 216.535579 79.0494737 215.882526 79.2847579 215.444379 79.7553263 215.006232 80.2263579 214.786695 80.8534737 214.786695 81.6366737 214.786695 82.4203368 215.006232 83.0474526 215.444379 83.5180211 215.882526 83.9890526 216.535579 84.2243368 217.403537 84.2243368 218.034821 84.2243368 218.535032 84.0904842 218.902779 83.8218526 219.270526 83.5532211 219.529432 83.1331368 219.680884 82.5606737L221.180126 82.5606737M229.581811 81.0030737C229.478063 80.3870737 229.190905 79.9072421 228.718947 79.5640421 228.247916 79.2208421 227.672211 79.0494737 226.993684 79.0494737 226.323958 79.0494737 225.734821 79.2254737 225.225347 79.5774737 224.716337 79.9294737 224.409263 80.4046737 224.306442 81.0030737L229.581811 81.0030737zM224.263832 82.0326737C224.292084 82.3763368 224.388884 82.6843368 224.553768 82.9566737 224.718653 83.2299368 224.930316 83.4610526 225.190147 83.6500211 225.449516 83.8394526 225.734821 83.9821053 226.046063 84.0793684 226.357305 84.1761684 226.672716 84.2243368 226.993684 84.2243368 227.483242 84.2243368 227.922316 84.1405053 228.308589 83.9733053 228.544337 83.8769684 228.754611 83.7472842 228.938484 83.5842526 229.122358 83.4212211 229.271032 83.2257684 229.384042 82.9965053L230.883747 82.9965053C230.713768 83.3929684 230.4896 83.7426526 230.211242 84.0460211 229.933347 84.3493895 229.622105 84.5962526 229.277516 84.7852211 228.933389 84.9746526 228.573053 85.1131368 228.195579 85.2011368 227.818568 85.2891368 227.441558 85.3331368 227.064547 85.3331368 226.366568 85.3331368 225.7464 85.2363368 225.204042 85.0427368 224.661684 84.8491368 224.209179 84.5828211 223.846526 84.2437895 223.482947 83.9056842 223.212463 83.5138526 223.032758 83.0692211 222.853516 82.6250526 222.764589 82.1470737 222.764589 81.6366737 222.764589 81.1267368 222.853516 80.6487579 223.032758 80.2045895 223.212463 79.7604211 223.482947 79.3685895 223.846526 79.0295579 224.209179 78.6909895 224.661684 78.4246737 225.204042 78.2306105 225.7464 78.0374737 226.366568 77.9402105 227.064547 77.9402105 227.573558 77.9402105 228.066358 78.0129263 228.542021 78.1583579 229.018611 78.3033263 229.447495 78.5325895 229.8296 78.8447579 230.211242 79.1569263 230.515537 79.5663579 230.741558 80.0725895 230.968042 80.5788211 231.081516 81.1749053 231.081516 81.8613053L231.081516 82.0326737 224.263832 82.0326737 224.263832 82.0326737z"/>
  </g>
</svg>
